<?xml version="1.0" standalone="no"?>
<!DOCTYPE svg PUBLIC "-//W3C//DTD SVG 20010904//EN"
 "http://www.w3.org/TR/2001/REC-SVG-20010904/DTD/svg10.dtd">
<svg version="1.0" xmlns="http://www.w3.org/2000/svg"
 width="360.000000pt" height="360.000000pt" viewBox="0 0 360.000000 360.000000"
 preserveAspectRatio="xMidYMid meet">
<metadata>
Created by potrace 1.14, written by Peter Selinger 2001-2017
</metadata>
<g transform="translate(0.000000,360.000000) scale(0.100000,-0.100000)"
fill="#000000" stroke="none">
<path d="M805 3328 c-27 -46 -32 -202 -10 -288 32 -122 32 -117 -12 -123 -63
-8 -112 -24 -167 -52 -28 -15 -78 -31 -112 -35 -84 -11 -185 -59 -220 -106
-26 -33 -30 -51 -40 -148 -11 -108 -10 -112 14 -163 16 -35 30 -53 42 -53 10
0 25 -7 34 -15 30 -31 35 -17 29 83 -5 93 -5 99 18 125 26 30 99 61 112 47 5
-4 4 -16 -2 -26 -34 -61 -60 -137 -66 -190 -6 -51 -3 -69 15 -109 29 -63 110
-148 166 -174 24 -12 44 -23 44 -26 0 -9 -90 -65 -158 -100 -39 -19 -85 -35
-104 -36 -78 -2 -117 -33 -56 -46 18 -4 37 -6 42 -5 4 2 49 4 100 6 65 2 104
8 136 23 25 11 62 26 83 33 21 6 63 29 95 50 31 21 61 35 65 31 5 -5 11 -28
14 -51 4 -28 22 -66 50 -107 46 -68 51 -83 29 -83 -28 0 -27 -20 1 -46 19 -17
24 -27 16 -31 -18 -7 -16 -38 2 -53 8 -7 15 -29 15 -49 0 -31 7 -42 45 -75 43
-36 95 -104 95 -125 0 -9 -60 -31 -86 -31 -6 0 -24 11 -40 25 -34 29 -38 30
-54 10 -7 -8 -17 -15 -22 -15 -5 0 -37 -21 -71 -47 -239 -185 -352 -291 -386
-363 -15 -30 -34 -67 -44 -81 -19 -29 -51 -128 -43 -136 9 -10 56 52 66 87 12
42 46 100 59 100 9 0 6 -15 -17 -85 -6 -16 -18 -66 -27 -110 -22 -104 -28
-123 -79 -239 -14 -32 -26 -60 -26 -61 0 -9 58 -11 85 -4 38 11 57 44 75 132
l12 57 38 -47 c22 -28 35 -52 30 -58 -24 -29 53 -114 135 -151 45 -19 125
-108 125 -137 0 -35 -11 -87 -19 -87 -3 0 -19 23 -36 51 -16 28 -47 65 -69 82
-34 27 -46 31 -105 31 -52 1 -66 -2 -66 -14 0 -11 14 -15 53 -17 60 -2 125
-37 143 -76 5 -12 23 -44 40 -71 16 -27 28 -51 25 -53 -3 -3 -19 6 -37 21 -17
15 -58 34 -90 43 -65 18 -77 33 -26 33 l32 0 -27 14 c-32 17 -145 10 -168 -10
-9 -7 -25 -11 -36 -8 -33 9 -211 -24 -250 -46 -20 -12 -39 -19 -41 -16 -3 3
26 35 63 73 138 138 169 183 124 183 -11 0 -20 -5 -20 -11 0 -6 -65 -75 -145
-155 -80 -79 -145 -150 -145 -158 0 -17 24 -28 45 -20 23 9 18 -13 -7 -30 -21
-15 -17 -16 63 -16 l85 0 17 35 c20 43 22 65 4 65 -13 0 -22 -10 -64 -64 -18
-23 -24 -25 -29 -13 -3 9 -4 24 -2 34 4 21 65 64 87 62 9 -1 29 3 45 10 38 15
268 22 326 10 53 -12 100 -31 100 -41 0 -5 6 -8 13 -8 7 0 32 -20 57 -45 37
-36 52 -44 83 -45 l37 0 2 63 c1 34 1 85 -1 112 l-2 50 20 -32 c12 -18 28 -33
36 -33 17 0 20 21 5 36 -16 16 -25 140 -11 148 6 4 11 22 11 39 0 18 3 43 7
56 l6 23 13 -23 c16 -28 17 -78 4 -134 -5 -22 -11 -100 -15 -172 l-6 -133 41
0 c40 0 40 0 40 38 l0 37 22 -37 c15 -27 29 -38 45 -38 l23 0 -20 33 c-11 17
-20 49 -20 70 0 20 -4 37 -10 37 -5 0 -10 -5 -10 -12 0 -6 -3 -9 -6 -6 -3 3
-2 22 2 42 7 42 22 37 49 -19 9 -19 20 -35 25 -35 6 0 10 -5 10 -10 0 -6 5
-16 11 -23 5 -7 19 -27 29 -45 15 -25 26 -32 50 -32 16 0 30 4 30 9 0 4 -18
29 -40 54 -22 25 -40 50 -40 55 0 6 -3 12 -7 14 -5 2 -27 28 -50 59 -47 62
-51 82 -29 169 13 56 26 126 72 400 38 219 39 233 23 228 -8 -3 -17 -20 -21
-39 -25 -118 -69 -355 -78 -417 -5 -40 -12 -77 -14 -81 -3 -3 -8 -34 -11 -66
-8 -68 -9 -70 -30 -62 -20 8 -19 34 1 54 13 13 15 27 9 67 -9 60 -9 54 5 175
6 52 8 101 5 108 -7 21 -28 11 -36 -18 -4 -15 -8 2 -9 46 0 39 -3 138 -5 221
l-4 151 75 12 c50 9 74 17 74 26 0 22 -12 24 -76 16 -32 -5 -62 -7 -65 -5 -15
9 15 86 43 109 36 30 116 35 143 9 13 -13 21 -14 41 -6 l24 12 0 -65 0 -65
-22 14 c-13 9 -32 27 -42 41 -21 28 -56 34 -56 9 0 -8 37 -54 82 -101 46 -47
112 -117 148 -156 154 -168 214 -227 248 -243 27 -12 72 -17 197 -20 l162 -4
26 26 c14 14 36 45 47 69 23 47 41 58 93 55 49 -3 51 -2 70 30 10 16 24 35 31
42 12 12 61 84 77 112 33 58 139 290 139 304 0 9 11 30 25 46 17 20 25 41 25
66 0 66 11 96 39 113 15 9 37 13 49 10 26 -6 52 12 52 38 0 11 3 19 8 19 4 0
6 -13 6 -30 -1 -16 -2 -50 -3 -75 -1 -33 -7 -50 -26 -67 -21 -20 -26 -37 -34
-118 -5 -52 -11 -141 -13 -197 -2 -85 0 -104 15 -120 9 -11 17 -24 17 -29 -1
-5 -30 -27 -65 -49 -36 -22 -65 -43 -65 -47 0 -5 -6 -8 -14 -8 -8 0 -17 -6
-19 -12 -3 -8 -6 -5 -6 5 -1 10 8 39 19 65 48 113 79 329 51 347 -14 8 -31
-28 -31 -67 0 -18 -13 -64 -29 -103 -30 -74 -31 -86 -6 -65 11 9 7 -11 -14
-71 -50 -141 -57 -154 -113 -197 -48 -37 -96 -85 -155 -155 -13 -15 -31 -27
-40 -27 -17 -1 -69 -68 -59 -77 2 -2 14 2 25 9 17 10 23 11 30 0 5 -8 21 -11
46 -7 23 3 42 0 46 -6 5 -8 26 -5 70 10 93 31 97 26 20 -28 -31 -23 -32 -25
-16 -37 22 -16 52 -10 117 22 26 13 58 24 72 24 14 0 37 5 53 12 15 6 64 12
108 12 l80 1 3 43 c4 47 -10 72 -39 72 -49 0 -8 18 102 44 148 35 146 35 351
44 92 4 170 11 174 15 18 17 -19 22 -174 21 -168 -1 -190 -4 -422 -58 -36 -8
-92 -24 -124 -36 -63 -21 -75 -21 -54 2 20 21 78 108 78 116 0 4 11 24 25 44
14 20 25 43 25 50 0 7 16 31 35 52 19 22 35 45 35 52 0 14 56 64 72 64 5 0 23
9 39 21 53 37 298 159 322 159 29 0 51 15 43 29 -17 27 -88 5 -261 -83 -60
-31 -111 -51 -113 -46 -6 17 -26 11 -58 -19 l-32 -30 -4 53 c-8 95 7 266 25
284 13 13 50 16 205 20 177 4 193 3 248 -18 77 -28 104 -35 104 -23 0 21 -54
53 -125 75 -16 5 -64 8 -105 8 -67 -1 -91 -1 -125 2 -5 1 -49 -2 -97 -6 -100
-9 -99 -10 -67 63 l20 48 66 7 c102 11 236 -23 390 -99 29 -14 57 -25 61 -25
14 0 71 -30 78 -42 4 -6 30 -21 59 -34 29 -12 56 -28 60 -33 10 -18 25 -12 25
8 0 11 -15 30 -32 42 -18 13 -53 40 -78 60 -63 52 -147 96 -199 104 -24 4 -62
16 -86 26 -23 10 -73 26 -111 35 -66 16 -104 19 -256 23 -52 1 -68 4 -68 15 0
19 -39 31 -53 17 -6 -6 -19 -11 -28 -11 -10 0 -19 -6 -22 -12 -7 -20 -19 -2
-19 27 0 14 9 36 21 49 30 32 25 66 -6 35 -7 -7 -15 9 -28 52 -18 67 -34 98
-71 139 -19 22 -23 38 -25 120 -3 122 8 165 42 166 65 3 128 42 158 101 14 27
14 90 1 98 -6 4 -10 -6 -10 -22 -1 -45 -32 -95 -78 -126 -24 -16 -46 -26 -49
-23 -4 3 1 22 10 41 9 20 17 43 17 53 0 9 11 30 25 46 27 32 34 96 13 114 -7
5 -32 15 -54 21 -23 6 -45 18 -48 26 -3 8 -12 15 -21 15 -48 0 33 108 104 138
59 26 86 27 135 7 20 -8 36 -13 36 -9 0 21 -28 47 -80 73 -51 26 -72 31 -133
31 -61 0 -80 -5 -124 -30 -28 -16 -54 -34 -58 -40 -13 -22 -25 -8 -25 29 0 22
-9 61 -20 88 -58 137 -83 162 -178 182 -62 13 -199 15 -206 3 -7 -12 -221 -24
-494 -28 -255 -3 -275 -7 -288 -62 -4 -15 -11 -33 -17 -40 -12 -16 -1 -71 19
-93 9 -10 14 -25 11 -33 -7 -17 -82 -56 -108 -56 -10 0 -42 -24 -72 -52 -63
-63 -113 -159 -122 -238 -4 -30 -9 -63 -11 -72 -8 -26 -34 -10 -34 21 0 47 28
219 39 239 21 40 128 155 152 165 11 4 8 10 -11 26 -14 11 -30 21 -37 21 -6 0
-42 30 -80 68 -85 82 -104 133 -109 284 -1 55 -4 102 -6 104 -2 2 -12 -11 -23
-28z m552 -368 c3 -11 9 -20 14 -20 4 0 13 -9 19 -20 9 -17 8 -21 -7 -26 -10
-3 -35 -13 -56 -22 -44 -18 -49 -14 -67 47 -12 45 1 61 52 61 31 0 41 -4 45
-20z m-499 -107 c19 -42 16 -46 -35 -39 -27 4 -74 10 -105 13 -32 3 -58 9 -58
13 0 6 16 12 95 35 6 2 28 4 50 4 34 1 42 -3 53 -26z m-308 -183 c0 -5 -4 -10
-10 -10 -5 0 -10 5 -10 10 0 6 5 10 10 10 6 0 10 -4 10 -10z m1747 -92 c31
-33 133 -181 133 -193 0 -4 8 -19 18 -33 30 -45 41 -92 48 -204 5 -80 4 -108
-5 -108 -6 0 -14 7 -17 15 -4 8 -14 15 -23 15 -10 0 -25 6 -35 13 -18 13 -18
14 -1 21 10 3 25 4 34 1 29 -8 43 9 32 38 -9 24 -16 27 -55 27 -26 0 -48 -6
-56 -15 -7 -8 -17 -15 -22 -15 -6 0 -61 -28 -123 -62 -96 -52 -112 -64 -104
-79 6 -11 16 -15 31 -12 22 5 22 5 -2 -13 -33 -24 -41 -37 -30 -48 6 -6 17 -3
30 9 29 26 37 11 16 -32 -9 -20 -20 -58 -23 -85 -5 -41 -10 -50 -36 -63 -38
-19 -34 -20 -50 18 -8 18 -33 45 -55 61 -40 28 -53 46 -32 46 22 0 8 21 -31
45 -33 22 -38 29 -29 41 12 13 3 35 -22 54 -9 7 -325 -8 -373 -18 -55 -11 -51
-33 8 -52 62 -20 58 -37 -15 -73 -65 -31 -77 -57 -26 -57 17 0 39 6 47 14 33
28 130 55 226 61 78 6 63 -8 -22 -20 -29 -4 -57 -13 -64 -21 -18 -22 -6 -22
101 0 68 15 74 14 86 -2 21 -27 17 -30 -33 -37 -27 -3 -75 -11 -108 -17 -33
-6 -73 -11 -90 -12 -28 -1 -30 1 -27 33 3 30 2 33 -11 23 -8 -7 -18 -24 -21
-37 -4 -14 -14 -26 -24 -26 -9 -1 -25 -2 -34 -3 -29 -2 -22 -20 11 -31 25 -7
31 -15 31 -37 0 -34 0 -34 -47 -7 -107 61 -123 69 -135 69 -24 0 -144 65 -125
68 9 2 30 -6 46 -17 16 -12 50 -24 75 -27 42 -6 46 -5 46 14 0 13 -14 29 -37
44 l-38 23 38 3 37 3 0 50 c0 27 -6 93 -14 147 -20 142 -18 154 24 165 166 42
230 70 230 98 0 24 -36 88 -59 105 -8 6 -12 18 -8 27 5 14 12 14 69 0 88 -23
132 -23 136 0 2 11 -3 17 -16 17 -27 0 -52 10 -52 21 0 5 34 9 75 9 66 0 75 2
75 18 0 32 32 53 66 43 37 -10 110 -47 145 -73 23 -17 29 -18 47 -7 12 7 22
22 24 33 2 10 11 24 21 30 15 9 22 7 34 -11 25 -36 43 -29 43 17 0 22 4 40 8
40 4 0 22 -15 39 -32z m338 -39 c9 -14 -4 -64 -14 -53 -5 5 -11 21 -15 37 -5
20 -3 27 8 27 8 0 18 -5 21 -11z m-2348 -126 c-3 -10 -5 -4 -5 12 0 17 2 24 5
18 2 -7 2 -21 0 -30z m413 32 c0 -3 -4 -13 -9 -23 -6 -9 -14 -66 -20 -127 -10
-102 -9 -112 9 -136 20 -28 17 -39 -10 -39 -38 0 -54 37 -58 134 -4 95 5 132
46 179 14 16 42 24 42 12z m1776 -441 c17 -4 24 -13 24 -31 0 -24 -2 -25 -52
-20 -37 3 -71 -2 -111 -16 -60 -21 -79 -18 -57 8 22 27 -11 18 -42 -12 l-28
-27 0 31 c0 29 4 33 52 49 56 18 154 34 176 28 8 -2 25 -7 38 -10z m129 -130
c15 -62 19 -142 9 -191 -6 -32 -39 -81 -48 -72 -3 3 -7 42 -7 87 -2 65 -5 82
-17 82 -11 0 -13 8 -8 38 3 20 6 66 6 102 l0 65 25 -26 c16 -16 31 -48 40 -85z
m-1645 42 c-1 -21 -1 -21 -15 -2 -8 11 -15 29 -15 40 1 21 1 21 15 2 8 -11 15
-29 15 -40z m225 13 c11 -16 2 -19 -39 -12 -26 4 -33 9 -24 14 18 12 56 11 63
-2z m1317 -86 c2 -43 -1 -91 -5 -106 -7 -21 -5 -39 7 -66 33 -72 -9 -111 -121
-111 -44 0 -63 6 -94 28 -59 41 -82 97 -77 183 3 61 7 73 28 89 31 24 77 30
91 13 16 -19 29 -16 50 11 18 22 35 28 101 34 14 2 17 -10 20 -75z m-582 40
c9 -2 20 -14 25 -26 6 -12 20 -26 32 -32 35 -15 67 -91 71 -170 3 -63 1 -74
-26 -115 -19 -30 -50 -57 -93 -83 -58 -34 -70 -37 -129 -36 -36 1 -72 5 -80
10 -8 4 -34 15 -58 25 -71 29 -83 55 -80 176 l3 103 45 7 c25 4 60 10 77 14
21 4 47 1 71 -9 26 -10 43 -12 55 -6 9 6 21 8 26 5 5 -3 11 3 14 13 2 11 15
21 28 23 30 4 39 38 11 38 -12 0 -22 8 -25 23 -2 12 -8 31 -12 41 -7 16 -5 18
11 12 10 -5 26 -10 34 -13z m-902 -14 c-2 -6 -8 -10 -13 -10 -5 0 -11 4 -13
10 -2 6 4 11 13 11 9 0 15 -5 13 -11z m172 -29 c22 -11 40 -25 40 -30 0 -11
73 -50 94 -50 8 0 43 -16 78 -36 34 -20 73 -40 85 -44 15 -6 20 -15 16 -28 -3
-13 4 -26 21 -40 21 -16 26 -29 26 -62 0 -54 34 -101 93 -131 62 -32 223 -33
289 -1 84 40 157 146 145 209 -10 51 47 133 74 106 16 -16 89 -223 89 -253 0
-22 -12 -40 -47 -73 -29 -28 -43 -48 -39 -56 6 -9 13 -8 30 6 11 11 38 30 59
44 41 27 54 56 38 87 -6 12 -11 30 -11 42 0 18 3 19 21 10 22 -12 165 -15 194
-4 15 6 17 2 11 -37 -4 -24 -11 -53 -16 -64 -81 -188 -169 -372 -204 -424 -64
-96 -153 -145 -196 -106 -9 8 -30 15 -47 15 -52 0 -219 56 -285 96 -119 71
-206 134 -230 167 -14 17 -49 77 -77 132 -29 55 -59 104 -67 108 -8 4 -14 14
-14 22 0 30 -24 26 -55 -10 -30 -33 -37 -36 -67 -30 -59 13 -134 80 -167 150
-17 35 -35 66 -41 70 -18 11 -11 35 10 35 27 0 27 37 0 45 -28 9 -15 25 19 25
21 0 30 6 34 22 8 28 -10 50 -34 43 -35 -11 -20 23 19 43 49 26 65 26 112 2z
m1000 -7 c0 -5 -5 -15 -10 -23 -8 -12 -10 -11 -10 8 0 12 5 22 10 22 6 0 10
-3 10 -7z m-850 -443 c0 -5 -7 -7 -15 -4 -8 4 -12 10 -9 15 6 11 24 2 24 -11z
m-260 -40 c0 -5 -10 -10 -22 -10 -19 0 -20 2 -8 10 19 13 30 13 30 0z m-192
-45 c7 -15 20 -25 32 -25 33 0 26 -38 -7 -42 -21 -2 -29 -9 -31 -28 -10 -100
-14 -111 -48 -142 -19 -17 -34 -39 -34 -49 0 -27 28 -31 45 -6 8 12 15 17 16
12 5 -87 -5 -219 -18 -247 -9 -18 -18 -28 -19 -23 -22 73 -64 289 -69 352 -7
79 -7 82 19 108 14 14 28 36 32 49 7 29 40 66 58 66 7 0 18 -11 24 -25z m492
-2 c19 -47 47 -94 72 -120 12 -13 27 -43 33 -66 10 -39 14 -43 110 -91 172
-87 266 -147 260 -167 -5 -14 2 -19 32 -25 21 -4 52 -13 70 -21 41 -16 43 -16
43 2 0 8 9 15 20 15 24 0 25 -13 3 -50 -31 -52 -146 -52 -239 1 -71 40 -184
165 -184 203 0 10 -6 16 -12 13 -23 -8 -9 -61 31 -119 22 -32 36 -58 31 -58
-13 0 -125 111 -187 185 -66 78 -109 156 -133 242 -25 86 -25 83 9 83 22 0 32
-6 41 -27z m-360 -22 c0 -20 -13 -41 -25 -41 -18 0 -26 25 -12 39 13 13 37 15
37 2z m-372 -198 c-27 -41 -128 -264 -128 -282 0 -6 -5 -11 -11 -11 -7 0 -9
10 -5 28 4 15 10 43 15 63 12 57 77 184 111 219 40 41 50 31 18 -17z m2062 -8
c0 -19 -4 -35 -10 -35 -11 0 -14 53 -3 63 11 12 13 8 13 -28z m-1949 -260 c11
-49 34 -135 51 -190 17 -55 36 -120 43 -145 7 -25 19 -57 26 -73 7 -15 10 -29
7 -32 -9 -9 -95 44 -132 83 -88 90 -176 187 -176 194 0 4 -11 8 -25 8 -29 0
-30 7 -11 47 27 53 55 128 72 186 12 44 22 60 40 67 23 9 35 50 14 50 -16 0
-12 20 12 53 l22 31 18 -95 c10 -51 28 -134 39 -184z m1909 128 c-13 -21 -31
-53 -42 -71 -89 -157 -157 -242 -193 -242 -8 0 -48 -16 -91 -35 -99 -45 -107
-45 -99 3 8 42 42 78 117 120 46 26 60 46 38 54 -10 3 80 78 93 78 4 0 33 20
64 44 49 37 120 83 131 85 2 1 -6 -16 -18 -36z m-645 -63 c36 0 46 -3 35 -10
-25 -16 -106 -12 -121 7 -13 15 -11 16 11 10 14 -4 48 -7 75 -7z m-271 -139
c-6 -7 -54 29 -54 40 0 6 13 0 29 -13 15 -13 27 -25 25 -27z m-1257 -3 c-3 -8
-6 -5 -6 6 -1 11 2 17 5 13 3 -3 4 -12 1 -19z m2048 -123 c-44 -27 -55 -30
-55 -15 0 12 56 39 80 39 8 0 -3 -11 -25 -24z m155 15 c21 -13 11 -18 -53 -24
-59 -5 -73 3 -34 22 28 13 67 15 87 2z m-2065 -110 c3 -5 1 -10 -4 -10 -6 0
-11 5 -11 10 0 6 2 10 4 10 3 0 8 -4 11 -10z m428 -274 c7 -17 -2 -56 -13 -56
-4 0 -10 9 -13 21 -10 37 14 68 26 35z m-26 -158 c-3 -7 -5 -2 -5 12 0 14 2
19 5 13 2 -7 2 -19 0 -25z"/>
<path d="M2419 1833 c-23 -27 -71 -42 -121 -36 -39 5 -48 3 -48 -10 0 -16 34
-32 48 -23 5 3 23 1 40 -3 28 -8 36 -5 77 31 25 22 43 44 39 49 -8 13 -20 11
-35 -8z"/>
<path d="M1832 1698 c-30 -31 -38 -33 -112 -36 -80 -4 -103 -16 -55 -28 14 -3
54 -4 90 -2 56 3 68 8 94 36 29 30 41 62 23 62 -4 0 -22 -15 -40 -32z"/>
<path d="M1140 1809 c0 -5 5 -7 10 -4 6 3 10 8 10 11 0 2 -4 4 -10 4 -5 0 -10
-5 -10 -11z"/>
<path d="M2251 1220 c-24 -11 -58 -20 -76 -20 -21 0 -45 -9 -64 -26 -35 -29
-39 -44 -13 -44 26 0 234 84 236 95 2 18 -38 15 -83 -5z"/>
<path d="M824 1195 c3 -9 6 -19 6 -21 0 -2 7 -4 16 -4 22 0 13 34 -10 38 -14
3 -17 0 -12 -13z"/>
<path d="M731 1658 c-44 -19 -61 -32 -54 -39 10 -10 143 37 143 52 0 18 -30
14 -89 -13z"/>
<path d="M765 1437 c-28 -21 0 -32 30 -13 14 9 25 19 25 21 0 10 -37 4 -55 -8z"/>
<path d="M3510 1336 c0 -13 61 -56 81 -56 20 0 7 26 -24 48 -38 25 -57 28 -57
8z"/>
<path d="M3480 1275 c0 -3 13 -20 30 -38 22 -24 30 -28 30 -15 0 9 -13 26 -30
38 -16 12 -30 19 -30 15z"/>
<path d="M3550 1208 c0 -7 11 -26 25 -42 21 -25 25 -26 25 -10 0 22 -26 64
-41 64 -5 0 -9 -6 -9 -12z"/>
<path d="M2133 793 c-7 -2 -13 -9 -13 -14 0 -11 -48 -76 -96 -129 -36 -40 -49
-70 -31 -70 24 1 94 79 159 178 22 34 14 49 -19 35z"/>
<path d="M2214 455 c-35 -16 -117 -133 -136 -196 -7 -23 -23 -48 -35 -56 -24
-16 -62 -11 -174 24 -25 7 -53 11 -63 7 -9 -3 -23 -1 -31 6 -19 16 -84 16
-113 1 -20 -11 -28 -32 -77 -198 l-12 -43 33 0 c26 0 34 4 34 17 0 10 12 53
26 96 32 96 43 102 133 70 86 -30 224 -55 257 -47 20 5 33 22 55 68 68 145
118 206 191 237 16 6 25 15 22 20 -8 13 -74 10 -110 -6z"/>
<path d="M2423 335 c-3 -9 -2 -19 2 -23 3 -4 52 -7 108 -8 79 -1 113 -6 147
-21 46 -20 158 -118 148 -129 -3 -3 -28 10 -55 29 -52 37 -92 58 -163 82 -50
18 -237 22 -253 6 -19 -19 3 -27 70 -25 94 3 189 -14 243 -44 25 -13 55 -30
68 -37 13 -7 59 -47 103 -89 44 -42 89 -76 100 -76 24 0 24 0 -8 57 -14 26
-31 57 -37 68 -6 11 -20 31 -32 45 -11 14 -31 41 -42 61 -47 78 -149 119 -299
119 -75 0 -95 -3 -100 -15z"/>
<path d="M2183 144 c-24 -10 -13 -22 52 -53 35 -17 77 -45 93 -62 23 -24 35
-30 62 -27 l34 3 -75 58 c-42 31 -80 57 -86 57 -6 0 -13 4 -15 9 -4 12 -49 22
-65 15z"/>
<path d="M3532 74 l-62 -74 47 0 c71 1 85 15 81 88 l-3 60 -63 -74z"/>
</g>
</svg>
